<svg xmlns="http://www.w3.org/2000/svg" viewBox="0 0 64 64"><defs><linearGradient id="g" x1="0" x2="1" y1="0" y2="1"><stop offset="0" stop-color="#9ed5ff"/><stop offset="1" stop-color="#4f92ff"/></linearGradient></defs><rect x="8" y="8" width="48" height="48" rx="14" fill="#0b1728" stroke="#21324a"/><path d="M18 38l3-10c.5-1.8 2.1-3 4-3h14c1.8 0 3.5 1.1 4.1 2.8l3.8 10.2" fill="none" stroke="url(#g)" stroke-width="3" stroke-linecap="round" stroke-linejoin="round"/><path d="M19 38h26c2.2 0 4 1.8 4 4v2H15v-2c0-2.2 1.8-4 4-4z" fill="#d7b36a" opacity=".95"/><circle cx="24" cy="44" r="3" fill="#081120"/><circle cx="40" cy="44" r="3" fill="#081120"/><path d="M32 16l8 4v6c0 5.1-3.4 9-8 10.4-4.6-1.4-8-5.3-8-10.4v-6l8-4z" fill="rgba(255,255,255,.06)" stroke="#dce7f7" stroke-width="2"/><path d="M29 26l2.3 2.4 4.5-5.2" fill="none" stroke="#dce7f7" stroke-width="2.2" stroke-linecap="round" stroke-linejoin="round"/></svg>